# xmcd CD database file
#
# Track frame offsets:
#	150
#	14933
#	32575
#	47946
#	64164
#	83587
#	99429
#	118439
#	136637
#	154819
#	174518
#
# Disc length: 2565 seconds
#
# Revision: 2
# Processed by: cddbd v1.5.2PL0 Copyright (c) Steve Scherf et al.
# Submitted via: CDex 1.70beta2
#
DISCID=910a030b
DTITLE=James Otto - Sunset Man
DYEAR=2008
DGENRE=Country
TTITLE0=Ain't Gonna Stop
TTITLE1=Just Got Started Lovin' You
TTITLE2=For You
TTITLE3=These Are The Good Ole Days
TTITLE4=Where Angels Hang Around
TTITLE5=Sunset Man
TTITLE6=You Don't Act Like My Woman
TTITLE7=When A Woman's Not Watchin'
TTITLE8=Drink And Dial
TTITLE9=Damn Right
TTITLE10=The Man That I Am
EXTD=YEAR: 2008
EXTT0=
EXTT1=
EXTT2=
EXTT3=
EXTT4=
EXTT5=
EXTT6=
EXTT7=
EXTT8=
EXTT9=
EXTT10=
PLAYORDER=
